<svg xmlns="http://www.w3.org/2000/svg" xmlns:xlink="http://www.w3.org/1999/xlink" width="720" zoomAndPan="magnify" viewBox="0 0 540 359.999987" height="480" preserveAspectRatio="xMidYMid meet" version="1.0"><defs><clipPath id="id1"><path d="M 13.296875 54.660156 L 526.621094 54.660156 L 526.621094 299.414062 L 13.296875 299.414062 Z M 13.296875 54.660156 " clip-rule="nonzero"/></clipPath><clipPath id="id2"><path d="M 20.03125 61.605469 L 518.800781 61.605469 L 518.800781 293.132812 L 20.03125 293.132812 Z M 20.03125 61.605469 " clip-rule="nonzero"/></clipPath><clipPath id="id3"><path d="M 210 204.738281 L 330.777344 204.738281 L 330.777344 255 L 210 255 Z M 210 204.738281 " clip-rule="nonzero"/></clipPath></defs><g clip-path="url(#id1)"><path fill="#253140" d="M 455.898438 54.660156 L 84.015625 54.660156 L 13.3125 177.039062 L 84.015625 299.414062 L 455.898438 299.414062 L 526.609375 177.039062 L 455.898438 54.660156 " fill-opacity="1" fill-rule="nonzero"/></g><g clip-path="url(#id2)"><path fill="#f5f5ef" d="M 452.535156 61.605469 L 86.304688 61.605469 L 20.042969 177.371094 L 86.304688 293.132812 L 452.535156 293.132812 L 518.789062 177.371094 L 452.535156 61.605469 M 448.929688 286.855469 L 89.90625 286.855469 L 27.25 177.371094 L 89.90625 67.878906 L 448.929688 67.878906 L 511.578125 177.371094 L 448.929688 286.855469 " fill-opacity="1" fill-rule="nonzero"/></g><path fill="#f5f5ef" d="M 95.382812 173.925781 L 113.105469 133.433594 L 113.984375 133.433594 L 131.734375 173.925781 L 125.230469 173.925781 L 120.738281 163.175781 L 103.015625 163.175781 L 98.605469 173.925781 Z M 103.898438 160.914062 L 119.800781 160.914062 L 111.917969 141.566406 Z M 103.898438 160.914062 " fill-opacity="1" fill-rule="nonzero"/><path fill="#f5f5ef" d="M 173.820312 144.679688 C 173.820312 148.503906 172.414062 151.398438 169.601562 153.363281 C 166.792969 155.332031 162.972656 156.3125 158.164062 156.3125 L 153.039062 156.3125 L 153.039062 173.925781 L 147.25 173.925781 L 147.25 134.398438 L 160.09375 134.398438 C 164.097656 134.398438 167.382812 135.324219 169.960938 137.15625 C 172.53125 138.976562 173.820312 141.484375 173.820312 144.679688 Z M 153.039062 154.574219 L 158.359375 154.574219 C 160.230469 154.574219 161.832031 154.21875 163.152344 153.5 C 164.492188 152.785156 165.457031 151.875 166.046875 150.773438 C 167.128906 148.773438 167.675781 146.832031 167.675781 144.957031 C 167.675781 144.0625 167.433594 142.964844 166.957031 141.675781 C 166 139.050781 164.023438 137.34375 161.03125 136.550781 C 158.164062 136.550781 155.5 136.894531 153.039062 137.570312 Z M 153.039062 154.574219 " fill-opacity="1" fill-rule="nonzero"/><path fill="#f5f5ef" d="M 215.96875 144.679688 C 215.96875 148.503906 214.5625 151.398438 211.75 153.363281 C 208.9375 155.332031 205.121094 156.3125 200.3125 156.3125 L 195.183594 156.3125 L 195.183594 173.925781 L 189.398438 173.925781 L 189.398438 134.398438 L 202.242188 134.398438 C 206.246094 134.398438 209.53125 135.324219 212.109375 137.15625 C 214.679688 138.976562 215.96875 141.484375 215.96875 144.679688 Z M 195.183594 154.574219 L 200.503906 154.574219 C 202.378906 154.574219 203.976562 154.21875 205.300781 153.5 C 206.636719 152.785156 207.601562 151.875 208.195312 150.773438 C 209.277344 148.773438 209.820312 146.832031 209.820312 144.957031 C 209.820312 144.0625 209.578125 142.964844 209.105469 141.675781 C 208.148438 139.050781 206.167969 137.34375 203.179688 136.550781 C 200.3125 136.550781 197.644531 136.894531 195.183594 137.570312 Z M 195.183594 154.574219 " fill-opacity="1" fill-rule="nonzero"/><path fill="#f5f5ef" d="M 277.105469 164.554688 L 290.28125 134.398438 L 296.375 134.398438 L 298.578125 173.925781 L 292.488281 173.925781 L 290.886719 139.96875 L 290.640625 139.96875 L 275.589844 173.925781 L 274.765625 173.925781 L 260.019531 141.316406 L 259.769531 141.316406 L 258.171875 173.925781 L 255.554688 173.925781 L 257.757812 134.398438 L 263.296875 134.398438 Z M 277.105469 164.554688 " fill-opacity="1" fill-rule="nonzero"/><path fill="#f5f5ef" d="M 313.875 173.925781 L 331.597656 133.433594 L 332.480469 133.433594 L 350.230469 173.925781 L 343.726562 173.925781 L 339.234375 163.175781 L 321.511719 163.175781 L 317.101562 173.925781 Z M 322.390625 160.914062 L 338.296875 160.914062 L 330.414062 141.566406 Z M 322.390625 160.914062 " fill-opacity="1" fill-rule="nonzero"/><path fill="#f5f5ef" d="M 371.585938 155.070312 L 371.585938 173.925781 L 365.746094 173.925781 L 365.746094 134.398438 L 378.644531 134.398438 C 382.667969 134.398438 385.953125 135.300781 388.511719 137.101562 C 391.082031 138.886719 392.371094 141.234375 392.371094 144.15625 C 392.371094 147.078125 391.335938 149.394531 389.28125 151.101562 C 387.242188 152.796875 384.464844 153.957031 380.957031 154.574219 L 396.972656 173.925781 L 390.054688 174.75 L 376.191406 155.070312 Z M 371.585938 153.28125 L 375.417969 153.28125 C 382.585938 153.28125 386.167969 150.457031 386.167969 144.792969 C 386.167969 143.839844 385.925781 142.765625 385.453125 141.566406 C 384.527344 139.070312 382.570312 137.417969 379.582031 136.605469 C 376.878906 136.605469 374.214844 136.949219 371.585938 137.625 Z M 371.585938 153.28125 " fill-opacity="1" fill-rule="nonzero"/><path fill="#f5f5ef" d="M 419.472656 173.925781 L 413.382812 173.925781 L 413.382812 134.398438 L 419.472656 134.398438 L 419.472656 153.859375 L 437.914062 134.398438 L 441.855469 134.398438 L 423.167969 152.785156 L 444.363281 173.925781 L 436.726562 174.695312 L 419.472656 154.464844 Z M 419.472656 173.925781 " fill-opacity="1" fill-rule="nonzero"/><path fill="#f5f5ef" d="M 231.523438 223.21875 C 231.503906 223.21875 231.503906 223.246094 231.523438 223.21875 C 231.550781 223.246094 231.550781 223.21875 231.523438 223.21875 Z M 231.523438 223.21875 " fill-opacity="1" fill-rule="nonzero"/><path fill="#f5f5ef" d="M 308.859375 222.648438 C 308.832031 222.648438 308.832031 222.667969 308.859375 222.648438 C 308.859375 222.667969 308.859375 222.648438 308.859375 222.648438 Z M 308.859375 222.648438 " fill-opacity="1" fill-rule="nonzero"/><g clip-path="url(#id3)"><path fill="#f5f5ef" d="M 330.09375 234.03125 C 329.46875 230.007812 326.320312 226.625 323.121094 224.300781 C 320.304688 222.261719 315.398438 220.152344 312.65625 223.390625 C 312.488281 223.605469 312.632812 223.941406 312.945312 223.867188 C 313.066406 223.847656 313.183594 223.820312 313.28125 223.796875 C 313.328125 223.820312 313.378906 223.847656 313.425781 223.847656 C 313.621094 223.847656 313.8125 223.894531 314.027344 223.914062 C 314.148438 224.085938 314.316406 224.203125 314.507812 224.273438 C 316.554688 224.902344 319.054688 227.296875 318.59375 229.621094 C 318.140625 231.941406 315.347656 232.589844 313.328125 232.308594 C 309.527344 231.777344 306.929688 228.132812 304.984375 225.191406 C 302.648438 221.640625 300.773438 217.753906 298.226562 214.351562 C 298.148438 214.234375 298.054688 214.136719 297.957031 214.019531 C 297.480469 213.277344 296.855469 212.582031 296.296875 211.980469 C 295.242188 210.878906 294.035156 209.894531 292.808594 208.984375 C 290.046875 206.972656 286.820312 205.53125 283.402344 205.097656 C 280.398438 204.738281 277.25 205.242188 274.722656 206.945312 C 272.828125 207.523438 271.234375 208.960938 270.035156 210.683594 C 269.023438 209.390625 267.777344 208.335938 266.355469 207.734375 C 265.777344 207.378906 265.152344 207.066406 264.503906 206.800781 C 261.492188 205.53125 258.175781 205.316406 255 206.082031 C 252.449219 206.710938 250.046875 207.996094 247.980469 209.75 C 246.144531 210.832031 244.492188 212.171875 243.191406 213.683594 C 240.449219 216.894531 238.574219 220.730469 236.363281 224.300781 C 234.460938 227.394531 232.074219 231.226562 228.472656 232.5 C 226.445312 233.21875 223.441406 233.121094 222.214844 231.109375 C 220.628906 228.636719 223.585938 225.546875 225.894531 224.851562 C 226.113281 224.777344 226.261719 224.660156 226.378906 224.496094 C 226.589844 224.464844 226.785156 224.417969 226.976562 224.417969 C 227.023438 224.417969 227.074219 224.398438 227.121094 224.347656 C 227.246094 224.371094 227.339844 224.398438 227.457031 224.445312 C 227.75 224.515625 227.914062 224.175781 227.75 223.964844 C 225.34375 221.136719 221.179688 222.453125 218.464844 224.085938 C 215.359375 225.976562 212.449219 228.855469 210.984375 232.230469 C 209.417969 235.828125 209.875 240.355469 211.753906 243.738281 C 213.675781 247.191406 217.066406 249.636719 220.601562 251.242188 C 237.800781 258.980469 258.464844 250.664062 267.699219 234.796875 C 268.683594 233.09375 269.554688 231.273438 270.324219 229.457031 C 270.585938 230.054688 270.875 230.65625 271.136719 231.226562 C 274.992188 239.589844 282.15625 246.449219 290.550781 250.238281 C 298.875 254 308.277344 254.765625 316.960938 251.765625 C 320.6875 250.472656 324.445312 248.507812 327.015625 245.441406 C 329.738281 242.230469 330.742188 238.199219 330.09375 234.03125 Z M 330.09375 234.03125 " fill-opacity="1" fill-rule="nonzero"/></g></svg>